<svg xmlns="http://www.w3.org/2000/svg" viewBox="0 0 560 96" fill="none" role="img" aria-labelledby="logoTitle logoDesc">
  <title id="logoTitle">TechSecPros</title>
  <desc id="logoDesc">TechSecPros shield and wordmark.</desc>
  <g transform="translate(4 12)">
    <path fill="#11222F" d="M34 4L8 11V29C8 47 17.5 58 34 66C50.5 58 60 47 60 29V11L34 4Z"/>
    <path fill="#1486D8" d="M34 4V66C50.5 58 60 47 60 29V11L34 4Z"/>
    <path d="M25 31V24C25 19.0294 29.0294 15 34 15C38.9706 15 43 19.0294 43 24V31" stroke="#081722" stroke-width="9" stroke-linecap="round"/>
    <path d="M25 31V24C25 19.0294 29.0294 15 34 15C38.9706 15 43 19.0294 43 24V31" stroke="#F8FBFF" stroke-width="5" stroke-linecap="round"/>
    <rect x="18" y="31" width="32" height="25" rx="6" fill="#F8FBFF" stroke="#081722" stroke-width="3"/>
    <path fill="#081722" d="M34 39C31.2386 39 29 41.2386 29 44C29 46.0213 30.2223 47.7572 32 48.52V53H36V48.52C37.7777 47.7572 39 46.0213 39 44C39 41.2386 36.7614 39 34 39Z"/>
    <path d="M52 24H64" stroke="#1486D8" stroke-width="4" stroke-linecap="round"/>
    <path d="M49 34H61" stroke="#1486D8" stroke-width="4" stroke-linecap="round"/>
    <path d="M46 44H59" stroke="#1486D8" stroke-width="4" stroke-linecap="round"/>
    <circle cx="68" cy="24" r="4.5" fill="#F8FBFF" stroke="#1486D8" stroke-width="4"/>
    <circle cx="65" cy="34" r="4.5" fill="#F8FBFF" stroke="#1486D8" stroke-width="4"/>
    <circle cx="63" cy="44" r="4.5" fill="#F8FBFF" stroke="#1486D8" stroke-width="4"/>
  </g>
  <text x="98" y="50" fill="#11222F" font-family="Manrope, &quot;Segoe UI&quot;, sans-serif" font-size="42" font-weight="700" letter-spacing="-1.2">
    TechSec<tspan fill="#1486D8">Pros</tspan>
  </text>
  <text x="101" y="74" fill="#5C6D77" font-family="&quot;IBM Plex Mono&quot;, Consolas, monospace" font-size="14" font-weight="600" letter-spacing="3.4">
    RISK INTELLIGENCE
  </text>
</svg>
